<svg width="36" height="39" viewBox="0 0 36 39" fill="none" xmlns="http://www.w3.org/2000/svg">
<path d="M36 12.3736V28.3636C36 30.3136 34.38 31.9091 32.4 31.9091H7.2L0 39V7.09091C0 5.14091 1.62 3.54545 3.6 3.54545H21.78C21.672 4.11273 21.6 4.71545 21.6 5.31818C21.6 10.2109 25.632 14.1818 30.6 14.1818C32.634 14.1818 34.488 13.4905 36 12.3736ZM25.2 5.31818C25.2 8.26091 27.612 10.6364 30.6 10.6364C33.588 10.6364 36 8.26091 36 5.31818C36 2.37545 33.588 0 30.6 0C27.612 0 25.2 2.37545 25.2 5.31818Z" fill="#8F95B2"/>
</svg>
