<svg width="41" height="39" viewBox="0 0 41 39" fill="none" xmlns="http://www.w3.org/2000/svg">
<path d="M11.2726 3.16L8.3681 0.3C3.49348 3.96 0.284353 9.6 0 16H4.06219C4.36685 10.7 7.12914 6.06 11.2726 3.16V3.16ZM36.4378 16H40.5C40.1953 9.6 36.9862 3.96 32.1319 0.3L29.2477 3.16C33.3506 6.06 36.1331 10.7 36.4378 16ZM32.4366 17C32.4366 10.86 29.1056 5.72 23.2966 4.36V3C23.2966 1.34 21.9358 0 20.25 0C18.5642 0 17.2034 1.34 17.2034 3V4.36C11.3741 5.72 8.06344 10.84 8.06344 17V27L4.00125 31V33H36.4987V31L32.4366 27V17ZM20.25 39C20.5344 39 20.7984 38.98 21.0624 38.92C22.3826 38.64 23.4591 37.76 23.9872 36.56C24.1903 36.08 24.2919 35.56 24.2919 35H16.1675C16.1878 37.2 17.9955 39 20.25 39Z" fill="#8F95B2"/>
</svg>
