<svg width="39" height="39" viewBox="0 0 39 39" fill="none" xmlns="http://www.w3.org/2000/svg">
<path d="M19.4805 0C8.7165 0 0 8.736 0 19.5C0 30.264 8.7165 39 19.4805 39C30.264 39 39 30.264 39 19.5C39 8.736 30.264 0 19.4805 0ZM19.5 35.1C10.881 35.1 3.9 28.119 3.9 19.5C3.9 10.881 10.881 3.9 19.5 3.9C28.119 3.9 35.1 10.881 35.1 19.5C35.1 28.119 28.119 35.1 19.5 35.1Z" fill="#8F95B2"/>
<path d="M20.2223 10.1111H17.3334V21.4772L27.4445 27.4444L28.8889 25.1144L20.2223 20.0565V10.1111Z" fill="#8F95B2"/>
</svg>
